<?xml version="1.0" encoding="utf-8"?>
<!-- Generator: Adobe Illustrator 21.0.0, SVG Export Plug-In . SVG Version: 6.00 Build 0)  -->
<!DOCTYPE svg PUBLIC "-//W3C//DTD SVG 1.1//EN" "http://www.w3.org/Graphics/SVG/1.1/DTD/svg11.dtd">
<svg version="1.1" id="save" xmlns="http://www.w3.org/2000/svg" xmlns:xlink="http://www.w3.org/1999/xlink" x="0px"
	 y="0px" viewBox="0 0 160 160" enable-background="new 0 0 160 160" xml:space="preserve">
<path d="M86.2,74.9H74.9c-5.7,0-10.4-4.7-10.4-10.4V18.2c0-5.7,4.7-10.4,10.4-10.4h11.4c5.7,0,10.4,4.7,10.4,10.4v46.3
	C96.7,70.2,92,74.9,86.2,74.9z"/>
<path d="M34.1,140.3v-0.9c0-5.4,4.4-9.7,9.7-9.7h73.1c5.4,0,9.7,4.4,9.7,9.7v0.9c0,5.4-4.4,9.7-9.7,9.7H43.8
	C38.5,150.1,34.1,145.7,34.1,140.3z"/>
<path d="M87.3,117.8l37.4-41.2c5.3-5.9,1.2-15.3-6.8-15.3H43.2c-7.9,0-12.1,9.4-6.8,15.3l37.4,41.2
	C77.4,121.8,83.7,121.8,87.3,117.8z"/>
</svg>
