<?xml version="1.0" encoding="utf-8"?>
<!-- Generator: Adobe Illustrator 21.0.0, SVG Export Plug-In . SVG Version: 6.00 Build 0)  -->
<!DOCTYPE svg PUBLIC "-//W3C//DTD SVG 1.1//EN" "http://www.w3.org/Graphics/SVG/1.1/DTD/svg11.dtd">
<svg version="1.1" id="trash" xmlns="http://www.w3.org/2000/svg" xmlns:xlink="http://www.w3.org/1999/xlink" x="0px"
	 y="0px" viewBox="0 0 160 160" enable-background="new 0 0 160 160" xml:space="preserve">
<path d="M96.5,18.5H66.2V11c0,0,6.6-0.9,15-0.9S96.5,11,96.5,11V18.5z"/>
<path d="M135.7,27.5c0,1.7-1.1,3.2-2.5,3.2c-8.5,0.5-36.7,1.9-51.9,1.9c-15.2,0-43.2-1.5-51.7-1.9c-1.4-0.1-2.5-1.5-2.5-3.2v-6.2
	c0-1.8,1.2-3.2,2.6-3.2H133c1.4,0,2.6,1.5,2.6,3.2V27.5z"/>
<path d="M128.8,35.5c0,0-19.1,1.5-48.6,1.5s-46.3-1.5-46.3-1.5S35.6,149,41.5,149c0,0,17.4,4,39.2,4s41-4,41-4
	C129.1,149,128.8,35.5,128.8,35.5z M60.5,141.7h-5.9V46.3h5.9V141.7z M85.2,141.7h-5.9V46.3h5.9V141.7z M109.9,141.7h-5.9V46.3h5.9
	V141.7z"/>
</svg>
